<?xml version="1.0" standalone="no"?>
<!DOCTYPE svg PUBLIC "-//W3C//DTD SVG 20010904//EN"
 "http://www.w3.org/TR/2001/REC-SVG-20010904/DTD/svg10.dtd">
<svg version="1.0" xmlns="http://www.w3.org/2000/svg"
 width="320.000000pt" height="320.000000pt" viewBox="0 0 320.000000 320.000000"
 preserveAspectRatio="xMidYMid meet">

<g transform="translate(0.000000,320.000000) scale(0.100000,-0.100000)"
fill="#000000" stroke="none">
<path d="M1425 2705 c-152 -33 -332 -128 -362 -190 -18 -37 -12 -74 14 -101
24 -23 89 -14 245 35 228 72 338 86 453 56 138 -36 174 -99 121 -210 -64 -135
-144 -186 -210 -134 l-26 21 20 25 c36 46 21 133 -23 133 -47 0 -61 -48 -32
-116 l14 -35 -50 3 -51 3 -18 58 c-23 75 -61 132 -102 153 -48 25 -137 22
-196 -7 -88 -45 -82 -88 45 -285 72 -113 133 -227 163 -304 31 -79 65 -104
110 -80 16 9 25 9 33 1 16 -16 43 -13 86 9 53 27 130 45 142 33 5 -5 -22 -47
-71 -108 -95 -118 -99 -138 -27 -143 27 -2 186 11 355 28 338 35 342 36 342
100 0 82 -110 328 -180 401 -44 47 -75 50 -120 13 -73 -62 -117 -158 -87 -192
8 -9 17 -44 19 -77 3 -33 8 -67 12 -76 6 -14 -2 -17 -51 -22 -32 -3 -68 -8
-80 -12 -17 -5 -23 -3 -23 7 0 9 -11 32 -25 52 l-25 37 142 205 c78 113 157
220 174 239 70 77 115 34 249 -240 97 -198 165 -366 165 -409 0 -17 -9 -32
-27 -43 -24 -16 -60 -19 -273 -23 -232 -5 -247 -6 -281 -27 -33 -21 -49 -23
-162 -23 -149 0 -177 -8 -177 -49 0 -32 79 -190 190 -381 116 -200 160 -250
220 -250 30 0 45 11 135 104 182 186 252 301 242 394 -11 103 -139 154 -247
100 -60 -31 -90 -77 -90 -139 l0 -48 -49 6 c-61 7 -91 -17 -91 -73 0 -43 45
-94 83 -94 50 0 72 56 68 175 -1 59 2 76 21 105 35 51 83 75 149 74 68 -1 112
-25 135 -72 41 -87 -28 -212 -231 -420 -82 -83 -105 -102 -129 -102 -55 0
-122 93 -300 415 -78 142 -104 211 -87 228 7 7 65 13 155 15 l144 4 -14 -68
c-14 -67 -43 -114 -71 -114 -8 0 -13 12 -13 33 0 21 -8 41 -20 52 -22 20 -50
14 -50 -10 0 -24 27 -72 45 -78 12 -5 15 -23 15 -82 0 -83 14 -128 53 -163 89
-83 294 23 221 114 -14 18 -15 18 -8 -6 17 -60 -12 -100 -87 -120 -107 -29
-169 39 -169 188 0 53 3 62 18 62 33 0 61 43 78 117 l16 71 46 6 c87 12 425
10 468 -2 100 -29 126 -134 72 -292 -74 -218 -363 -498 -516 -504 l-45 -1 -95
170 c-193 350 -304 541 -330 568 -22 24 -32 27 -59 22 -18 -3 -195 -8 -394
-10 -275 -3 -359 -1 -356 8 2 8 41 13 123 14 270 6 567 23 580 34 23 19 17 41
-32 119 -25 41 -80 134 -122 205 -197 338 -244 382 -324 298 -73 -78 -167
-239 -189 -327 -14 -58 -5 -107 28 -146 60 -72 212 -113 263 -72 31 26 21 47
-39 80 -55 31 -76 63 -61 92 18 34 70 60 121 60 l47 0 11 -61 c16 -92 47 -129
79 -97 15 15 15 69 0 103 -6 14 -26 34 -44 45 -22 14 -34 31 -38 54 -8 41 -60
91 -105 101 -35 7 -41 29 -12 45 49 26 114 -40 214 -218 79 -140 91 -181 56
-206 -28 -19 -51 -20 -96 -4 -29 10 -43 8 -115 -17 -67 -23 -105 -29 -196 -33
l-112 -4 6 55 c6 50 4 56 -15 67 -28 14 -87 -3 -101 -31 -14 -26 0 -51 44 -74
20 -11 35 -24 33 -30 -10 -30 -112 -8 -160 35 -31 27 -32 31 -32 107 0 93 33
201 101 333 51 100 109 171 220 274 90 83 113 123 96 161 -15 33 -52 40 -111
20 -88 -29 -152 -90 -235 -222 -46 -74 -13 -46 38 32 26 41 66 91 88 111 101
91 239 101 206 15 -5 -14 -66 -84 -136 -156 -107 -110 -134 -144 -173 -220
-68 -131 -101 -235 -106 -330 -3 -54 0 -88 9 -105 20 -37 74 -69 129 -76 39
-5 49 -10 49 -25 0 -16 -8 -19 -45 -19 -51 0 -99 -20 -109 -45 -39 -102 99
-393 246 -520 65 -56 138 -95 179 -95 43 0 65 21 104 100 15 30 35 60 43 66 8
6 12 15 9 21 -3 5 5 44 19 87 13 42 24 91 24 109 0 39 -31 93 -59 102 -17 5
-18 10 -9 36 12 34 35 49 74 49 22 0 25 -3 16 -12 -30 -30 0 -75 43 -64 32 8
46 53 21 71 -9 7 -16 15 -16 17 0 3 30 18 66 34 50 21 70 25 82 17 37 -23 36
-26 -123 -248 -43 -60 -91 -127 -107 -148 -17 -21 -28 -41 -25 -44 3 -3 28 25
54 62 26 37 88 122 136 189 92 127 107 158 89 186 -9 15 -7 19 11 24 12 3 36
6 53 6 39 0 36 5 241 -360 186 -330 206 -370 199 -378 -9 -8 -76 26 -80 40
-22 78 -154 321 -243 451 -43 62 -86 71 -99 21 -7 -28 -16 -30 -34 -9 -27 32
-90 13 -115 -35 -21 -40 -20 -45 22 -91 44 -49 36 -59 -48 -59 -70 0 -92 -15
-87 -59 4 -48 44 -75 108 -74 83 1 116 37 98 106 -5 21 -1 36 17 63 13 19 26
52 30 74 4 22 10 40 15 40 22 0 110 -95 125 -134 16 -43 16 -45 -4 -65 -25
-25 -27 -59 -6 -87 15 -19 15 -19 30 0 8 11 15 30 15 43 0 13 4 23 9 23 26 0
147 -208 131 -224 -27 -27 -281 -3 -544 50 -154 31 -191 31 -211 0 -47 -71 66
-175 245 -226 206 -58 573 -24 645 61 15 19 23 38 20 49 -5 14 3 18 44 23 127
15 314 168 442 361 74 113 104 196 104 298 0 89 -16 120 -81 153 -36 19 -57
20 -284 18 -193 -1 -241 1 -225 10 13 8 102 14 265 17 213 4 250 7 273 23 21
13 27 25 27 53 0 53 -61 207 -165 419 -93 190 -146 267 -192 280 -32 9 -86
-45 -178 -177 -227 -327 -211 -308 -258 -308 -23 0 -69 -12 -102 -26 -136 -58
-137 -44 -7 90 113 116 190 217 291 380 86 138 125 176 182 176 140 0 300
-200 430 -538 24 -63 45 -109 47 -103 4 13 -77 220 -123 312 -70 138 -147 237
-228 293 -118 81 -191 64 -279 -64 -11 -16 -8 -1 9 40 14 36 28 93 31 127 5
62 4 63 -31 96 -49 45 -172 104 -264 128 -89 22 -227 24 -318 4z m362 -30 c88
-30 205 -95 228 -127 32 -47 4 -162 -71 -295 -49 -85 -50 -88 -33 -78 8 5 11
4 6 -1 -5 -5 -12 -9 -15 -9 -13 0 -32 -16 -32 -27 0 -6 7 -5 17 3 23 19 -34
-63 -106 -153 -78 -98 -189 -214 -196 -206 -13 12 20 54 153 195 74 79 133
146 130 148 -2 2 -68 -63 -145 -145 -104 -110 -145 -161 -154 -189 -14 -48
-50 -69 -83 -48 -12 8 -32 41 -45 73 -41 100 -88 189 -152 286 -87 132 -111
183 -107 226 3 33 8 40 48 60 61 31 145 30 191 -1 33 -22 82 -104 95 -159 6
-26 4 -28 -28 -28 -19 0 -39 -5 -46 -12 -19 -19 -14 -65 11 -94 37 -42 64 -22
81 59 6 25 10 27 60 27 38 0 58 -5 67 -17 8 -9 29 -22 47 -30 27 -11 37 -11
65 0 71 30 157 162 157 244 0 89 -91 144 -250 151 -104 5 -192 -13 -418 -83
-164 -51 -193 -46 -195 31 -1 31 5 42 36 69 165 143 470 201 684 130z m-107
-364 c16 -30 12 -66 -9 -92 l-20 -24 -15 37 c-19 45 -20 70 -4 86 18 18 36 15
48 -7z m-162 -156 c4 -41 -21 -74 -45 -59 -10 6 -22 23 -28 39 -8 22 -6 29 10
41 32 23 60 14 63 -21z m-394 -89 c39 -42 343 -537 353 -575 7 -26 -8 -28
-297 -41 -275 -13 -397 -11 -392 5 1 6 26 9 55 8 82 -4 213 16 284 43 76 28
84 29 57 10 -27 -20 -7 -51 32 -51 22 0 30 5 32 23 3 17 10 22 35 22 47 0 77
25 77 63 0 53 -130 288 -198 359 -56 59 -122 60 -136 3 -4 -14 -20 -32 -38
-41 -61 -32 -99 -94 -65 -107 35 -13 107 52 107 97 0 20 41 21 79 1 25 -12 61
-67 61 -92 0 -4 -22 -9 -48 -9 -85 -3 -151 -55 -138 -109 6 -24 17 -34 85 -78
45 -29 48 -42 12 -57 -56 -23 -171 12 -225 69 -70 73 -46 183 81 373 56 85 98
128 126 128 12 0 38 -19 61 -44z m1100 -40 c64 -78 166 -310 166 -375 0 -56 6
-54 -359 -92 -234 -24 -362 -29 -368 -14 -4 14 153 210 169 210 7 0 21 -17 32
-38 18 -38 18 -38 -4 -62 -23 -24 -20 -48 4 -39 7 3 18 15 24 28 6 13 26 27
50 34 45 14 122 16 122 4 0 -21 64 -72 90 -72 31 0 56 23 45 41 -10 15 -85 49
-111 49 -23 0 -44 52 -44 108 0 29 2 31 35 30 19 -1 41 5 50 12 19 16 20 69 0
76 -26 10 -65 -6 -77 -31 -13 -30 -24 -32 -33 -6 -8 28 17 82 61 131 64 70 95
72 148 6z m-96 -129 c5 -26 -16 -47 -49 -47 -35 0 -38 21 -8 51 24 24 52 22
57 -4z m-1108 -13 c0 -29 -53 -83 -82 -84 -28 0 -21 20 18 56 31 30 64 44 64
28z m224 -168 c20 -31 21 -80 2 -95 -21 -18 -45 23 -53 89 -6 50 -5 52 14 42
11 -6 28 -22 37 -36z m915 -55 c30 -16 27 -41 -4 -41 -25 0 -75 39 -75 59 0
11 43 1 79 -18z m-1355 -114 c-2 -54 -15 -64 -56 -40 -18 10 -35 28 -37 38 -4
25 27 47 64 43 28 -3 30 -6 29 -41z m433 -61 c-8 -20 -31 -21 -47 -1 -10 12
-8 16 11 24 28 10 44 -1 36 -23z m132 -92 c32 -7 31 -7 -36 -40 -37 -18 -71
-30 -75 -28 -4 3 -26 0 -48 -6 -31 -8 -45 -19 -56 -44 -16 -32 -18 -33 -65
-28 -77 7 -106 -35 -53 -77 37 -29 51 -26 90 14 l33 35 28 -24 c25 -21 28 -31
27 -78 -2 -56 -46 -191 -72 -220 -36 -42 -99 -13 -167 78 -86 115 -195 330
-195 386 l0 28 173 3 c94 1 220 4 278 5 59 1 121 -1 138 -4z m-600 -51 c29
-113 153 -335 236 -420 44 -45 57 -53 88 -53 42 0 42 0 21 -43 -25 -48 -55
-77 -81 -77 -79 0 -243 145 -323 285 -49 87 -99 223 -100 270 0 59 29 81 111
84 36 1 37 0 48 -46z m1091 -40 c0 -12 -4 -23 -10 -23 -14 0 -42 58 -34 71 10
16 44 -21 44 -48z m-556 -6 c19 -14 13 -42 -12 -52 -25 -9 -46 18 -33 44 14
24 21 26 45 8z m-184 -67 c11 -7 12 -14 4 -27 -17 -27 -39 -36 -67 -29 -30 7
-46 44 -26 57 19 12 70 11 89 -1z m514 -72 c28 -37 174 -285 212 -359 40 -80
27 -79 -20 1 -24 41 -58 88 -75 104 -17 16 -38 52 -47 79 -16 48 -83 128 -128
152 -14 8 -17 17 -12 33 10 32 41 27 70 -10z m445 16 c20 -14 22 -22 17 -57
-14 -83 -46 -99 -97 -48 -34 35 -38 72 -9 101 24 24 58 26 89 4z m-606 -19
c-36 -15 -45 -48 -17 -59 18 -7 29 -2 63 28 l24 21 -8 -40 c-7 -42 -29 -90
-44 -100 -15 -9 -80 67 -81 93 0 30 43 72 72 72 20 -1 18 -3 -9 -15z m37 -25
c0 -11 -48 -25 -56 -17 -4 3 -3 10 1 16 8 14 55 14 55 1z m-26 -166 c13 -34 6
-73 -16 -88 -55 -39 -168 -6 -168 49 0 32 14 39 95 46 39 3 73 6 76 7 4 1 10
-5 13 -14z m221 -83 c-4 -17 -10 -31 -15 -31 -15 0 -21 39 -10 61 17 30 34 9
25 -30z m-373 -161 c290 -56 475 -73 526 -46 24 12 30 12 47 0 11 -8 36 -19
57 -25 31 -8 38 -14 38 -34 0 -55 -93 -95 -271 -116 -243 -28 -496 31 -589
138 -46 52 -37 113 17 113 12 0 91 -13 175 -30z"/>
</g>
</svg>
